<svg width="24" height="24" viewBox="0 0 24 24" fill="none" xmlns="http://www.w3.org/2000/svg">
<g clip-path="url(#clip0_53_199)">
<path d="M14.1314 0C13.9579 0 13.7967 0.0373647 13.648 0.0871529C13.9641 0.298635 14.1376 0.578635 14.2243 0.896C14.2306 0.939577 14.243 0.970729 14.2492 1.01421C14.2554 1.05158 14.2615 1.08894 14.2615 1.12621C14.2864 1.67379 14.119 1.74221 14.0012 2.06579C13.8215 2.48273 13.8711 2.93073 14.088 3.29158C14.1066 3.33515 14.1314 3.38494 14.1624 3.42852C13.9269 1.85421 15.2347 1.61779 15.4764 1.12621C15.4949 0.696941 15.1417 0.410635 14.8628 0.211576C14.5962 0.0496941 14.3545 0 14.1314 0ZM16.1023 0.354635C16.0776 0.497788 16.0961 0.460424 16.09 0.535153C16.0838 0.584941 16.0838 0.647153 16.0776 0.696941C16.0652 0.746635 16.0528 0.796424 16.0342 0.846212C16.0218 0.896094 16.0032 0.945788 15.9847 0.995577C15.9598 1.04536 15.9413 1.08894 15.9164 1.13864C15.8979 1.16358 15.8855 1.18852 15.8668 1.21336L15.8297 1.26936C15.7988 1.31294 15.7677 1.35652 15.7367 1.39379C15.6995 1.43115 15.6685 1.47473 15.6251 1.50579V1.512C15.5879 1.54315 15.5508 1.58052 15.5074 1.61158C15.3773 1.71115 15.2285 1.78579 15.0921 1.87915C15.0488 1.91021 15.0054 1.93515 14.9681 1.97252C14.9247 2.00358 14.8875 2.03464 14.8504 2.07209C14.807 2.10936 14.776 2.14673 14.7388 2.19031C14.7079 2.22758 14.6707 2.27125 14.6458 2.31473C14.6149 2.35831 14.584 2.40179 14.5591 2.44536C14.5343 2.49525 14.5157 2.53873 14.4909 2.58842C14.4723 2.63831 14.4537 2.68188 14.4414 2.73158C14.4227 2.78758 14.4103 2.83736 14.398 2.88715C14.3918 2.91209 14.3918 2.94315 14.3856 2.96809C14.3793 2.99294 14.3793 3.01788 14.3732 3.04273C14.3732 3.09252 14.3669 3.14852 14.3669 3.19831C14.3669 3.23567 14.3669 3.27294 14.3732 3.31031C14.3732 3.36009 14.3794 3.40988 14.3918 3.46588C14.398 3.51567 14.4103 3.56536 14.4227 3.61515C14.4414 3.66504 14.4537 3.71473 14.4724 3.76452C14.4847 3.79558 14.5033 3.82673 14.5157 3.85167L13.0902 3.29788C12.8521 3.22982 12.6124 3.16756 12.3713 3.11115L11.9808 3.01788C11.6089 2.94315 11.2308 2.88715 10.8528 2.84988C10.8404 2.84988 10.8341 2.84358 10.8219 2.84358C10.4532 2.8063 10.0829 2.78761 9.71233 2.78758C9.43961 2.78758 9.16689 2.8 8.90045 2.81864C8.52227 2.84358 8.14427 2.89336 7.76608 2.95558C7.67317 2.96809 7.58017 2.98673 7.48727 3.00546C7.29508 3.04273 7.10917 3.08631 6.92945 3.12988L6.65045 3.20452C6.55755 3.24188 6.47073 3.28546 6.38402 3.32273L6.17945 3.41609C6.16708 3.42231 6.15461 3.42231 6.14852 3.42852C6.08645 3.45958 6.03067 3.48452 5.97489 3.51558C5.95996 3.52067 5.94544 3.52693 5.93148 3.53431C5.86333 3.56536 5.79517 3.60273 5.73939 3.63388C5.69598 3.65252 5.65258 3.67736 5.61545 3.696C5.59747 3.70744 5.57884 3.71784 5.55967 3.72715C5.50389 3.75821 5.44811 3.78936 5.39842 3.82052C5.34715 3.8488 5.29751 3.87997 5.24973 3.91388C5.20633 3.94494 5.16302 3.96988 5.1258 4.00094C5.11961 4.00715 5.11342 4.00715 5.10714 4.01336C5.07002 4.03831 5.02661 4.06937 4.98939 4.10052L4.97702 4.11294L4.88411 4.18758C4.87164 4.19388 4.85927 4.20631 4.84689 4.21252C4.81595 4.23736 4.78492 4.26852 4.75389 4.29346C4.7477 4.30579 4.73533 4.31209 4.72914 4.31831C4.69192 4.35567 4.6547 4.38673 4.61758 4.42409C4.6113 4.42409 4.6113 4.43031 4.6052 4.43652C4.56798 4.46758 4.53077 4.50494 4.49364 4.54231C4.48736 4.54852 4.48736 4.55473 4.48117 4.55473C4.45023 4.58579 4.4193 4.61694 4.38827 4.65431C4.37589 4.66673 4.35733 4.67915 4.34486 4.69158C4.31392 4.72894 4.2767 4.76631 4.23948 4.80358C4.2333 4.81609 4.22092 4.82231 4.21464 4.83473C4.16514 4.88452 4.12173 4.93431 4.07214 4.98409L4.05358 5.00273C3.95439 5.10852 3.84902 5.21431 3.73745 5.30767C3.62755 5.40613 3.5116 5.49757 3.3903 5.58146C3.27012 5.66607 3.14604 5.74496 3.01848 5.81788C2.89198 5.88753 2.76162 5.94984 2.62802 6.00452C2.49617 6.06077 2.3617 6.11061 2.22508 6.15388C1.96483 6.20988 1.6982 6.31567 1.46898 6.33431C1.4193 6.33431 1.36361 6.34673 1.31402 6.35294C1.2622 6.36473 1.21054 6.37719 1.15905 6.39031L1.01027 6.44631C0.960671 6.46494 0.911171 6.48988 0.861578 6.51473C0.818171 6.54579 0.768578 6.57073 0.725172 6.60188C0.681765 6.63294 0.638453 6.67031 0.601234 6.70767C0.557828 6.73873 0.514422 6.78231 0.477297 6.81967C0.440078 6.86325 0.402859 6.90061 0.371922 6.94409C0.340984 6.99388 0.303765 7.03746 0.278922 7.08715C0.247984 7.13082 0.216953 7.18052 0.192109 7.23031C0.167359 7.28631 0.142609 7.33609 0.123953 7.39219C0.104403 7.44575 0.0858059 7.49966 0.0681715 7.55388C0.0557965 7.60367 0.0434215 7.65346 0.037234 7.70325C0.037234 7.70946 0.0309528 7.71567 0.0309528 7.72188C0.0185778 7.77788 0.0185778 7.85261 0.0123903 7.88988C0.00620276 7.93346 1.52588e-05 7.97082 1.52588e-05 8.01431C1.52588e-05 8.03925 1.52588e-05 8.07031 0.00620276 8.09525C0.0123903 8.13882 0.0185778 8.17619 0.0310465 8.21346C0.0434215 8.25082 0.0557965 8.28809 0.0744528 8.32546V8.33167C0.0930153 8.36904 0.117765 8.4064 0.142609 8.44367C0.167359 8.48104 0.192203 8.5184 0.223234 8.55567C0.254172 8.58673 0.291297 8.62419 0.328515 8.65525C0.365734 8.69261 0.402953 8.72367 0.446265 8.75482C0.595047 8.88546 0.632265 8.92904 0.824359 9.02861C0.855296 9.04725 0.886328 9.05967 0.923546 9.0784C0.929734 9.0784 0.935921 9.08461 0.942109 9.08461C0.942109 9.09704 0.942109 9.10325 0.94839 9.11567C0.954578 9.16555 0.966953 9.21525 0.979328 9.26504C0.991703 9.32104 1.01027 9.37082 1.02892 9.4144C1.04748 9.45177 1.05986 9.48904 1.07852 9.5264C1.0847 9.53882 1.09089 9.55134 1.09708 9.55746C1.12192 9.60734 1.14677 9.65082 1.17152 9.6944L1.26442 9.82504C1.29536 9.8624 1.33258 9.90598 1.3698 9.94334C1.40702 9.98061 1.44423 10.0118 1.48755 10.049C1.48755 10.049 1.49383 10.0553 1.49992 10.0553C1.53714 10.0864 1.57436 10.1175 1.61148 10.1424C1.65489 10.1735 1.6983 10.1984 1.74789 10.2233C1.7913 10.2482 1.84089 10.2731 1.89039 10.2918C1.92761 10.3104 1.97102 10.3228 2.01442 10.3353C2.02061 10.3416 2.0268 10.3416 2.03917 10.3478C2.06402 10.354 2.09495 10.3602 2.1198 10.3664C2.10114 10.7024 2.09495 11.0198 2.14455 11.1318C2.20033 11.2562 2.47305 10.8767 2.74577 10.4411C2.70864 10.8704 2.68389 11.3744 2.74577 11.5238C2.81392 11.6793 3.18583 11.194 3.50814 10.6588C7.90258 9.6384 11.9126 12.6873 12.3341 16.9932C12.2535 16.3212 11.4293 15.9479 11.0512 16.0412C10.8652 16.5016 10.5491 17.0928 10.0409 17.4599C10.0842 17.0492 10.0657 16.6261 9.97886 16.2154C9.84255 16.7879 9.57602 17.323 9.2103 17.7834C8.62155 17.827 8.0328 17.5408 7.72276 17.1114C7.69802 17.0928 7.69183 17.0554 7.67327 17.0305C7.65461 16.987 7.63605 16.9434 7.62358 16.8999C7.60553 16.8581 7.59304 16.8142 7.58645 16.7692C7.58027 16.7256 7.58027 16.6821 7.58027 16.6323V16.539C7.58645 16.4954 7.59883 16.4519 7.6112 16.4083C7.62358 16.3648 7.63605 16.3212 7.65461 16.2776C7.67945 16.2341 7.69802 16.1905 7.72895 16.147C7.83433 15.8483 7.83433 15.6056 7.64223 15.4625C7.60502 15.4381 7.56559 15.4173 7.52448 15.4004C7.49964 15.3941 7.4687 15.3816 7.44386 15.3754C7.4253 15.3691 7.41292 15.3629 7.39427 15.3567C7.35095 15.3443 7.30755 15.3319 7.26414 15.3256C7.22185 15.3133 7.17805 15.307 7.13402 15.3069C7.09061 15.3007 7.04102 15.2945 6.99761 15.2945C6.96667 15.2945 6.93573 15.3007 6.90461 15.3007C6.85511 15.3007 6.8117 15.307 6.7683 15.3194C6.72489 15.3256 6.68148 15.3319 6.63817 15.3443C6.59477 15.3567 6.55136 15.3692 6.50795 15.3879C6.46464 15.4065 6.42733 15.4252 6.38402 15.4439C6.3468 15.4625 6.30967 15.4874 6.26627 15.5061C4.82214 16.452 5.68361 18.667 6.66911 19.308C6.2972 19.3764 5.91911 19.4573 5.81383 19.5382L5.80145 19.5506C6.06789 19.7125 6.3468 19.8493 6.63817 19.9675C7.03483 20.0982 7.45633 20.2164 7.64223 20.2662V20.2724C8.15574 20.3781 8.68085 20.4157 9.20411 20.3844C11.9499 20.1914 14.1998 18.0946 14.6088 15.3319C14.6212 15.3879 14.6336 15.4376 14.646 15.4936C14.6646 15.6056 14.6894 15.7239 14.7018 15.8421V15.8484C14.7142 15.9044 14.7204 15.9604 14.7266 16.0102V16.035C14.7328 16.091 14.739 16.147 14.739 16.1968C14.7452 16.2652 14.7514 16.3336 14.7514 16.4022V16.5016C14.7514 16.5328 14.7576 16.5702 14.7576 16.6012C14.7576 16.6386 14.7514 16.676 14.7514 16.7132V16.8004C14.7514 16.844 14.7452 16.8813 14.7452 16.9248C14.7452 16.9497 14.7452 16.9746 14.7389 17.0057C14.7389 17.0492 14.7327 17.0928 14.7327 17.1426C14.7265 17.1612 14.7265 17.18 14.7265 17.1986C14.7204 17.2484 14.7142 17.292 14.7079 17.3416C14.7079 17.3604 14.7079 17.379 14.7017 17.3977C14.6955 17.4599 14.6831 17.516 14.677 17.5782V17.5906C14.6646 17.6466 14.6521 17.7089 14.6397 17.7649V17.7835L14.6025 17.9515C14.6025 17.9577 14.5963 17.9702 14.5963 17.9764C14.584 18.0324 14.5716 18.0884 14.5529 18.1445V18.1631C14.5344 18.2253 14.5158 18.2813 14.5034 18.3373C14.4971 18.3435 14.4971 18.3497 14.4971 18.3497L14.4414 18.5364C14.4166 18.5987 14.398 18.6547 14.3732 18.7169C14.3485 18.779 14.3298 18.8413 14.305 18.8973C14.2802 18.9595 14.2554 19.0155 14.2307 19.0777H14.2244C14.1997 19.1337 14.1748 19.196 14.1438 19.252C14.1388 19.2669 14.1325 19.2815 14.1252 19.2955C14.119 19.3018 14.119 19.308 14.1129 19.3143C13.71 20.1293 13.115 20.8449 12.3713 21.4049C12.3216 21.436 12.2721 21.4734 12.2225 21.5107C12.2101 21.5231 12.1915 21.5294 12.1791 21.5417C12.1357 21.5729 12.0924 21.604 12.0428 21.6351L12.0613 21.6725H12.0675L12.3279 21.6351H12.334C12.4953 21.6103 12.6564 21.5791 12.8175 21.548C12.8609 21.5418 12.9105 21.5294 12.9538 21.517C12.9849 21.5107 13.0096 21.5045 13.0406 21.4983C13.084 21.492 13.1275 21.4796 13.1708 21.4733C13.208 21.4609 13.2452 21.4547 13.2823 21.4423C13.9022 21.2929 14.5034 21.0875 15.0798 20.8449C14.0943 22.1951 12.7741 23.284 11.2308 23.9996C11.9436 23.9498 12.6564 23.8316 13.3444 23.6326C15.8422 22.892 17.9433 21.2058 19.2015 18.9347C18.9461 20.3754 18.3768 21.7416 17.5342 22.9356C18.1348 22.5378 18.6898 22.0746 19.189 21.5543C20.5775 20.0983 21.4885 18.2502 21.7985 16.2652C22.0099 17.25 22.0705 18.2614 21.9782 19.2645C26.4532 12.9985 22.3501 6.5024 20.6333 4.79125C20.627 4.77882 20.6209 4.77261 20.6209 4.76019C20.6146 4.7664 20.6146 4.7664 20.6146 4.77261C20.6146 4.76631 20.6146 4.76631 20.6084 4.76019C20.6084 4.83482 20.6022 4.90946 20.596 4.98419C20.5775 5.12725 20.5588 5.26419 20.5341 5.40113C20.5031 5.53798 20.4659 5.67482 20.4287 5.81176C20.3846 5.94646 20.3349 6.07928 20.2799 6.20988C20.223 6.33885 20.1609 6.46551 20.094 6.58955C20.0259 6.70776 19.9515 6.83219 19.8709 6.94419C19.7912 7.05991 19.7064 7.17202 19.6168 7.28019C19.5237 7.39219 19.4246 7.49176 19.3255 7.59134C19.2671 7.64494 19.2072 7.69679 19.1457 7.74682C19.096 7.7904 19.0527 7.82776 19.0031 7.87134C18.8916 7.9584 18.78 8.03934 18.6561 8.11398C18.5383 8.18861 18.4143 8.26334 18.2905 8.32555C18.1601 8.38776 18.03 8.44376 17.8999 8.49976C17.7678 8.54983 17.6334 8.59342 17.497 8.6304C17.36 8.66743 17.2214 8.69858 17.0817 8.72377C16.9392 8.74871 16.7967 8.76113 16.6603 8.77355C16.5611 8.77977 16.462 8.78598 16.3628 8.78598C16.2203 8.78598 16.0777 8.77355 15.9414 8.76113C15.7988 8.74861 15.6562 8.72998 15.5199 8.69882C15.3774 8.67398 15.241 8.63671 15.1045 8.59313H15.0984C15.2348 8.58061 15.3712 8.56819 15.5075 8.54325C15.6473 8.51876 15.7859 8.48764 15.9228 8.44998C16.0591 8.413 16.1935 8.3694 16.3255 8.31934C16.462 8.26946 16.5921 8.20734 16.7161 8.14504C16.8462 8.08292 16.964 8.0144 17.0879 7.93976C17.2057 7.85882 17.3235 7.77788 17.4351 7.69082C17.5461 7.60416 17.6517 7.51065 17.7511 7.41082C17.8565 7.31746 17.9495 7.21176 18.0425 7.10588C18.1331 6.99693 18.2199 6.88486 18.3027 6.76988C18.3151 6.75125 18.3276 6.7264 18.34 6.70776C18.4019 6.60819 18.4639 6.50861 18.5197 6.40904C18.5879 6.28566 18.6499 6.15898 18.7057 6.02946C18.7617 5.89926 18.8113 5.7664 18.8544 5.63134C18.8978 5.50052 18.9288 5.36367 18.9597 5.22682C18.9846 5.08377 19.0094 4.94682 19.0217 4.80988C19.0341 4.66682 19.0465 4.52377 19.0465 4.38682C19.0465 4.28725 19.0404 4.18767 19.0342 4.08809C19.0218 3.94504 19.0032 3.80809 18.9845 3.67115C18.9601 3.53081 18.9291 3.39171 18.8917 3.25431C18.8482 3.12367 18.8049 2.98673 18.7553 2.85609C18.7056 2.72546 18.6437 2.59473 18.5817 2.47031C18.5135 2.34588 18.4453 2.22136 18.371 2.10325C18.2918 1.98662 18.2092 1.87246 18.123 1.76094C18.0297 1.65361 17.9347 1.54781 17.8379 1.44358C17.7857 1.39021 17.732 1.33836 17.6768 1.28809C17.3991 1.07158 17.1116 0.868073 16.8152 0.678212C16.7752 0.655033 16.7338 0.63429 16.6913 0.616094C16.4868 0.485365 16.2947 0.416941 16.1025 0.354729L16.1023 0.354635Z" fill="#E0234E"/>
</g>
<defs>
<clipPath id="clip0_53_199">
<rect width="24" height="24" fill="white"/>
</clipPath>
</defs>
</svg>
