<svg width="24" height="24" viewBox="0 0 24 24" fill="none" xmlns="http://www.w3.org/2000/svg">
<g clip-path="url(#clip0_53_174)">
<path d="M11.899 24C11.577 24 11.259 23.916 10.976 23.753L8.041 22.015C7.602 21.77 7.816 21.683 7.961 21.633C8.545 21.429 8.664 21.383 9.288 21.028C9.354 20.991 9.44 21.004 9.507 21.043L11.762 22.382C11.8042 22.4037 11.851 22.4151 11.8985 22.4151C11.946 22.4151 11.9928 22.4037 12.035 22.382L20.829 17.305C20.8699 17.2804 20.9037 17.2456 20.9271 17.2041C20.9506 17.1626 20.963 17.1157 20.963 17.068V6.91899C20.9631 6.87035 20.9507 6.8225 20.9268 6.7801C20.903 6.73769 20.8686 6.70217 20.827 6.67699L12.037 1.60499C11.9958 1.58111 11.9491 1.56853 11.9015 1.56853C11.8539 1.56853 11.8072 1.58111 11.766 1.60499L2.976 6.67699C2.93398 6.70148 2.89907 6.73649 2.8747 6.77857C2.85032 6.82065 2.83733 6.86836 2.837 6.91699V17.065C2.837 17.162 2.89 17.255 2.974 17.301L5.382 18.692C6.69 19.346 7.489 18.576 7.489 17.801V7.78499C7.48846 7.7514 7.49469 7.71804 7.50732 7.68692C7.51996 7.65579 7.53874 7.62752 7.56254 7.60382C7.58634 7.58011 7.61468 7.56144 7.64585 7.54893C7.67703 7.53641 7.71041 7.53031 7.744 7.53099H8.858C8.997 7.53099 9.111 7.64099 9.111 7.78499V17.805C9.111 19.549 8.161 20.55 6.507 20.55C5.998 20.55 5.597 20.55 4.479 20L2.172 18.67C1.89158 18.5062 1.65893 18.2719 1.49717 17.9903C1.33542 17.7087 1.2502 17.3897 1.25 17.065V6.91699C1.25 6.25699 1.602 5.63999 2.172 5.31499L10.976 0.23599C11.2595 0.0810684 11.5774 -0.00012207 11.9005 -0.00012207C12.2236 -0.00012207 12.5415 0.0810684 12.825 0.23599L21.617 5.31599C22.185 5.64499 22.539 6.25899 22.539 6.91899V17.068C22.5383 17.3922 22.4528 17.7106 22.2911 17.9916C22.1294 18.2726 21.897 18.5065 21.617 18.67L12.825 23.749C12.543 23.9111 12.2233 23.996 11.898 23.995V24H11.899ZM14.615 17.007C10.767 17.007 9.961 15.241 9.961 13.759C9.961 13.619 10.074 13.506 10.215 13.506H11.351C11.477 13.506 11.582 13.597 11.602 13.721C11.774 14.879 12.285 15.463 14.612 15.463C16.465 15.463 17.253 15.044 17.253 14.061C17.253 13.495 17.028 13.075 14.149 12.793C11.741 12.555 10.253 12.025 10.253 10.099C10.253 8.32399 11.75 7.26799 14.257 7.26799C17.072 7.26799 18.468 8.24499 18.644 10.345C18.647 10.3803 18.6427 10.4159 18.6313 10.4495C18.6199 10.4831 18.6016 10.5139 18.5776 10.54C18.5536 10.5662 18.5245 10.587 18.492 10.6013C18.4595 10.6156 18.4245 10.623 18.389 10.623H17.246C17.1884 10.6229 17.1326 10.6031 17.0879 10.5669C17.0431 10.5307 17.0121 10.4803 17 10.424C16.725 9.20699 16.06 8.81699 14.253 8.81699C12.23 8.81699 11.994 9.52199 11.994 10.05C11.994 10.69 12.271 10.878 15.001 11.239C17.704 11.598 18.988 12.104 18.988 14.004C18.988 15.919 17.389 17.018 14.603 17.018L14.615 17.007Z" fill="#A1C92F"/>
</g>
<defs>
<clipPath id="clip0_53_174">
<rect width="24" height="24" fill="white"/>
</clipPath>
</defs>
</svg>
