<svg width="24" height="24" viewBox="0 0 24 24" fill="none" xmlns="http://www.w3.org/2000/svg">
<g clip-path="url(#clip0_53_207)">
<path d="M23.907 14.3715C23.7631 13.9488 23.3861 13.6545 22.8986 13.5838C22.6687 13.5506 22.4055 13.5647 22.094 13.627C21.551 13.7356 21.1481 13.777 20.8541 13.785C21.9638 11.9682 22.8662 9.89637 23.3857 7.9461C24.2257 4.79255 23.7768 3.35592 23.2522 2.7061C21.8641 0.986099 19.8388 0.0620993 17.3955 0.0338266C16.0921 0.0183721 14.9479 0.267918 14.351 0.447372C13.7952 0.352281 13.1977 0.29919 12.5707 0.289372C11.3953 0.27119 10.3568 0.519645 9.4695 1.03028C8.97825 0.86919 8.18981 0.642099 7.27931 0.49719C5.13787 0.156281 3.41193 0.421918 2.1495 1.28674C0.620808 2.33383 -0.0878485 4.1531 0.043214 6.69401C0.084839 7.50074 0.550214 9.95528 1.28296 12.2831C1.70409 13.6211 2.15315 14.7322 2.61768 15.5858C3.27646 16.7963 3.98137 17.5091 4.77271 17.7651C5.21625 17.9084 6.02212 18.0087 6.86971 17.3242C6.97715 17.4504 7.1205 17.5757 7.31071 17.6922C7.55231 17.8399 7.84771 17.9606 8.14275 18.0322C9.20596 18.2899 10.2019 18.2255 11.0515 17.8642C11.0568 18.0107 11.0608 18.1507 11.0642 18.2716C11.0698 18.4677 11.0754 18.66 11.0828 18.8398C11.1332 20.0556 11.2185 21.001 11.4712 21.6625C11.4851 21.6988 11.5038 21.7543 11.5235 21.8131C11.6496 22.1875 11.8604 22.8142 12.3968 23.305C12.9523 23.8135 13.6242 23.9694 14.2396 23.9694C14.5482 23.9694 14.8427 23.9301 15.101 23.8765C16.0216 23.6851 17.0672 23.3936 17.8236 22.3493C18.5387 21.362 18.8863 19.875 18.9492 17.532C18.9574 17.4657 18.9649 17.4025 18.9721 17.3422L18.9871 17.2184L19.1556 17.2327L19.199 17.2356C20.1367 17.277 21.2832 17.0842 21.9874 16.767C22.5438 16.5166 24.3268 15.6038 23.907 14.3715Z" fill="white"/>
<path d="M22.3037 14.6111C19.5156 15.1688 19.3238 14.2535 19.3238 14.2535C22.2676 10.0178 23.4982 4.64112 22.4363 3.32521C19.5391 -0.264335 14.5239 1.4333 14.4402 1.4773L14.4133 1.48203C13.8624 1.37112 13.246 1.30512 12.5531 1.29412C11.2916 1.27412 10.3346 1.61485 9.60844 2.14885C9.60844 2.14885 0.661874 -1.42515 1.07803 6.64376C1.16653 8.3603 3.61528 19.6322 6.53597 16.2276C7.6035 14.9826 8.63503 13.9299 8.63503 13.9299C9.14728 14.2599 9.76059 14.4283 10.4035 14.3678L10.4535 14.3268C10.4379 14.4813 10.4451 14.6325 10.4735 14.8115C9.72103 15.6267 9.94219 15.7698 8.43806 16.07C6.91603 16.3742 7.81012 16.9157 8.39391 17.0573C9.10162 17.2288 10.7389 17.4719 11.8451 15.9702L11.8011 16.1416C12.0958 16.3706 12.3028 17.6309 12.2681 18.7736C12.2334 19.9161 12.2103 20.7006 12.4425 21.3133C12.6749 21.926 12.9064 23.3047 14.8837 22.8938C16.5359 22.5505 17.3921 21.6608 17.5113 20.1766C17.5957 19.1215 17.7871 19.2775 17.7991 18.3341L17.9526 17.8876C18.1295 16.4573 17.9807 15.9958 18.9985 16.2105L19.246 16.2316C19.9951 16.2646 20.9757 16.1147 21.5512 15.8553C22.7904 15.2977 23.5254 14.3665 22.3035 14.6111H22.3037Z" fill="#336791"/>
<path d="M10.1321 7.41139C9.88087 7.37748 9.65334 7.40884 9.53822 7.49339C9.47353 7.54093 9.45347 7.59603 9.44803 7.63393C9.43359 7.73439 9.50615 7.84548 9.55078 7.90275C9.67697 8.06493 9.86128 8.17639 10.0437 8.20093C10.0702 8.20457 10.0965 8.20621 10.1227 8.20621C10.4269 8.20621 10.7035 7.97648 10.7279 7.80693C10.7584 7.59457 10.4405 7.45293 10.1321 7.41139ZM18.4556 7.41812C18.4316 7.25166 18.1262 7.20421 17.8363 7.2433C17.5468 7.28239 17.2661 7.40912 17.2896 7.57593C17.3083 7.70566 17.5499 7.92712 17.8358 7.92712C17.86 7.92712 17.8844 7.92557 17.909 7.92221C18.0998 7.89657 18.2399 7.77903 18.3065 7.7113C18.4077 7.60803 18.4664 7.49293 18.4556 7.41812Z" fill="white"/>
<path d="M23.2314 14.5477C23.1251 14.236 22.7829 14.1357 22.2144 14.2495C20.5265 14.5874 19.922 14.3534 19.7235 14.2116C21.0355 12.2735 22.1149 9.93055 22.6972 7.74464C22.973 6.70918 23.1253 5.74755 23.1378 4.96373C23.1516 4.10346 23.0004 3.47127 22.6888 3.08509C21.4324 1.52827 19.5883 0.693182 17.3561 0.670273C15.8215 0.653546 14.525 1.03436 14.2736 1.14145C13.7443 1.01382 13.1673 0.935455 12.5391 0.925455C11.3871 0.907364 10.3912 1.17482 9.56681 1.72C9.20868 1.59073 8.28318 1.28264 7.15134 1.10582C5.19459 0.800364 3.63965 1.03182 2.53003 1.79409C1.20599 2.70373 0.594744 4.32973 0.71315 6.62682C0.752994 7.39964 1.20712 9.77709 1.92374 12.0539C2.86706 15.0506 3.89249 16.7471 4.97137 17.0961C5.09765 17.1369 5.24324 17.1655 5.40384 17.1655C5.7974 17.1655 6.27993 16.9935 6.78196 16.4082C7.3943 15.6959 8.02772 15.0009 8.68143 14.324C9.10556 14.5447 9.5715 14.668 10.048 14.6804C10.049 14.6925 10.0502 14.7045 10.0513 14.7165C9.96928 14.8114 9.88895 14.9076 9.81037 15.0052C9.48018 15.4116 9.41146 15.4963 8.34862 15.7085C8.04628 15.769 7.24331 15.9295 7.23149 16.4753C7.21874 17.0716 8.18071 17.3221 8.29031 17.3486C8.67225 17.4414 9.04021 17.4871 9.39112 17.4871C10.2445 17.4871 10.9956 17.2151 11.5957 16.6888C11.5773 18.8148 11.6687 20.9097 11.9319 21.548C12.1476 22.0705 12.6742 23.3475 14.3379 23.3475C14.5821 23.3475 14.8507 23.3199 15.1463 23.2585C16.8827 22.8975 17.6367 22.1534 17.9284 20.5127C18.0845 19.6359 18.3523 17.5422 18.4783 16.4191C18.7442 16.4995 19.0865 16.5364 19.4565 16.5363C20.2282 16.5363 21.1188 16.3773 21.6772 16.1259C22.3046 15.8434 23.4367 15.1501 23.2314 14.5477ZM19.0965 6.95864C19.0908 7.29018 19.0437 7.59118 18.9938 7.90536C18.9401 8.24327 18.8846 8.59264 18.8707 9.01673C18.8569 9.42945 18.91 9.85855 18.9614 10.2735C19.0653 11.1117 19.1719 11.9746 18.7593 12.8261C18.6907 12.7083 18.6297 12.5866 18.5765 12.4616C18.5252 12.3411 18.4138 12.1475 18.2596 11.8795C17.6597 10.8362 16.2548 8.39309 16.974 7.39618C17.1882 7.09945 17.7319 6.79436 19.0965 6.95864ZM17.4424 1.34164C19.4424 1.38445 21.0246 2.11 22.1447 3.498C23.0038 4.56264 22.0578 9.40691 19.3191 13.5861C19.2915 13.5521 19.2638 13.5183 19.236 13.4845L19.2013 13.4425C19.909 12.3092 19.7707 11.1878 19.6475 10.1936C19.5968 9.78564 19.549 9.40027 19.5612 9.03827C19.5738 8.65464 19.6261 8.32555 19.6767 8.00736C19.7389 7.61527 19.8022 7.20955 19.7847 6.73127C19.7977 6.68109 19.803 6.62182 19.7962 6.55146C19.7516 6.09282 19.2116 4.72018 18.111 3.47782C17.5089 2.79827 16.631 2.03782 15.4322 1.52491C15.9478 1.42127 16.6529 1.32464 17.4424 1.34164ZM6.25068 15.9798C5.69756 16.6247 5.31562 16.5011 5.18999 16.4605C4.37156 16.1958 3.42187 14.5184 2.58459 11.8584C1.86009 9.55673 1.43671 7.24227 1.40315 6.59327C1.2974 4.54073 1.81049 3.11027 2.92828 2.34155C4.7474 1.09064 7.73821 1.83936 8.93999 2.21909C8.92274 2.23564 8.90475 2.25109 8.88768 2.26791C6.91556 4.19918 6.96234 7.49882 6.96721 7.70055C6.96703 7.77836 6.97378 7.88855 6.98296 8.04009C7.0169 8.59509 7.08009 9.628 6.91134 10.7977C6.75459 11.8847 7.10015 12.9486 7.85924 13.7167C7.93715 13.7954 8.01903 13.8703 8.10459 13.9411C7.76671 14.292 7.03237 15.068 6.25068 15.9798ZM8.35809 13.2532C7.74628 12.6341 7.4684 11.773 7.59562 10.8905C7.77374 9.65482 7.70803 8.57864 7.67268 8.00045C7.66771 7.91955 7.66331 7.84864 7.66078 7.79273C7.94887 7.545 9.28396 6.85136 10.2361 7.06291C10.6705 7.15936 10.9353 7.44627 11.0453 7.93973C11.615 10.4945 11.1207 11.5594 10.7236 12.4151C10.6417 12.5914 10.5644 12.758 10.4984 12.9304L10.4472 13.0636C10.3177 13.4005 10.1971 13.7138 10.1224 14.0113C9.47193 14.0095 8.83921 13.74 8.35809 13.2531V13.2532ZM8.45793 16.6986C8.26799 16.6526 8.09718 16.5727 7.99696 16.5065C8.08068 16.4683 8.22965 16.4163 8.48803 16.3646C9.73837 16.1151 9.93149 15.9389 10.3532 15.4197C10.4498 15.3006 10.5594 15.1657 10.7112 15.0014L10.7114 15.0012C10.9374 14.7557 11.0408 14.7974 11.2283 14.8728C11.3803 14.9337 11.5283 15.1185 11.5883 15.3217C11.6167 15.4177 11.6486 15.5999 11.5443 15.7417C10.6634 16.9377 9.37978 16.9224 8.45793 16.6986ZM15.0016 22.6034C13.472 22.9212 12.9304 22.1644 12.5735 21.2992C12.3431 20.7406 12.2299 18.2219 12.3102 15.4404C12.3112 15.4034 12.3058 15.3676 12.2953 15.334C12.2859 15.2676 12.2716 15.2019 12.2526 15.1375C12.1331 14.7327 11.842 14.3942 11.4928 14.2538C11.3541 14.1981 11.0994 14.0958 10.7934 14.1717C10.8587 13.911 10.9718 13.6165 11.0946 13.2977L11.146 13.1636C11.204 13.0125 11.2767 12.8558 11.3536 12.69C11.7692 11.7947 12.3383 10.5685 11.7206 7.79818C11.4892 6.76055 10.7166 6.25382 9.54525 6.37155C8.84306 6.442 8.20059 6.71673 7.88015 6.87427C7.81124 6.90809 7.74824 6.94082 7.68937 6.97264C7.77881 5.92718 8.11668 3.97336 9.38062 2.73718C10.1765 1.959 11.2363 1.57464 12.5276 1.59536C15.072 1.63573 16.7036 2.90191 17.6244 3.95709C18.4179 4.86627 18.8476 5.78218 19.0191 6.27618C17.7295 6.149 16.8525 6.39582 16.4079 7.01218C15.4407 8.35291 16.9371 10.9551 17.6562 12.2057C17.7881 12.4349 17.9019 12.633 17.9377 12.7172C18.1719 13.2675 18.4751 13.635 18.6965 13.9032C18.7643 13.9854 18.8302 14.0651 18.8802 14.1347C18.4897 14.2439 17.7881 14.4962 17.8521 15.7572C17.8005 16.3899 17.4338 19.3523 17.2476 20.3989C17.0017 21.7816 16.4769 22.2966 15.0016 22.6035V22.6034ZM21.3863 15.5183C20.987 15.698 20.3186 15.8328 19.6837 15.8618C18.9825 15.8936 18.6255 15.7856 18.5415 15.7192C18.5021 14.9334 18.8037 14.8513 19.1229 14.7644C19.1731 14.7507 19.222 14.7374 19.2693 14.7214C19.2986 14.7445 19.3308 14.7675 19.366 14.7901C19.9297 15.1508 20.9349 15.1897 22.3542 14.9056L22.3698 14.9026C22.1783 15.0762 21.8508 15.3091 21.3863 15.5183Z" fill="white"/>
</g>
<defs>
<clipPath id="clip0_53_207">
<rect width="24" height="24" fill="white"/>
</clipPath>
</defs>
</svg>
