<svg width="24" height="24" viewBox="0 0 24 24" fill="none" xmlns="http://www.w3.org/2000/svg">
<g clip-path="url(#clip0_53_201)">
<path d="M12.4607 0.00287423C12.2445 -0.0113994 12.0285 0.0340033 11.8363 0.134126C11.6441 0.234248 11.4831 0.385242 11.3709 0.570624L2.39532 15.2091C2.27837 15.3998 2.21722 15.6194 2.21881 15.843C2.2204 16.0667 2.28467 16.2854 2.40432 16.4744L6.82332 23.4467C6.96348 23.6665 7.17151 23.8345 7.41583 23.9253C7.66015 24.0161 7.92741 24.0247 8.17707 23.9498L20.9293 20.1235C21.0931 20.0745 21.2444 19.9908 21.3731 19.8783C21.5018 19.7657 21.6048 19.6269 21.6752 19.4711C21.7456 19.3152 21.7817 19.1462 21.7812 18.9752C21.7806 18.8042 21.7433 18.6354 21.6718 18.4801L13.4743 0.695687C13.3852 0.498453 13.2435 0.329516 13.0649 0.207333C12.8862 0.0851494 12.6774 0.0144207 12.4613 0.00287423H12.4607ZM12.7973 4.4935C12.8926 4.4821 12.989 4.50219 13.0719 4.5507C13.1548 4.59921 13.2195 4.67347 13.2563 4.76219L18.9113 17.8467C18.9364 17.9048 18.949 17.9677 18.9481 18.031C18.9473 18.0944 18.933 18.1569 18.9062 18.2143C18.8794 18.2717 18.8407 18.3228 18.7927 18.3642C18.7447 18.4056 18.6885 18.4363 18.6278 18.4544L9.816 21.0839C9.74196 21.1059 9.66349 21.1083 9.5882 21.0911C9.51292 21.0738 9.44338 21.0374 9.38633 20.9853C9.32927 20.9332 9.28665 20.8673 9.26259 20.7939C9.23853 20.7205 9.23385 20.6421 9.249 20.5664L12.4046 4.85162C12.4223 4.75723 12.4703 4.67119 12.5413 4.60655C12.6124 4.54192 12.7026 4.50222 12.7982 4.4935H12.7973Z" fill="#2D3748"/>
</g>
<defs>
<clipPath id="clip0_53_201">
<rect width="24" height="24" fill="white"/>
</clipPath>
</defs>
</svg>
