<svg width="24" height="24" viewBox="0 0 24 24" fill="none" xmlns="http://www.w3.org/2000/svg">
<g clip-path="url(#clip0_53_142)">
<path d="M20.7056 3.1754C18.4787 -0.0143499 14.0794 -0.959725 10.8994 1.0679L5.31336 4.6304C4.55746 5.10465 3.90887 5.73145 3.40908 6.47071C2.90928 7.20997 2.5693 8.04541 2.41086 8.92359C2.34022 9.3177 2.30427 9.71967 2.30361 10.1228C2.30701 11.2161 2.57481 12.2923 3.08418 13.2597C2.60666 13.9858 2.28083 14.801 2.12624 15.6561C1.96781 16.5502 1.98999 17.4768 2.19093 18.3584C2.39199 19.2458 2.76808 20.0842 3.29718 20.8244C5.5243 24.0138 9.93355 24.9593 13.1034 22.9319L18.6838 19.3692C19.4392 18.8943 20.087 18.2667 20.5855 17.5267C21.084 16.7867 21.4222 15.9506 21.5784 15.0721C21.6502 14.677 21.6861 14.2763 21.6857 13.8747C21.6844 12.7835 21.4199 11.7088 20.9147 10.7416C21.3921 10.0161 21.7182 9.20173 21.8732 8.34721C21.9424 7.95159 21.9776 7.55127 21.9786 7.14984C21.9789 5.72589 21.5339 4.33748 20.706 3.17896L20.7056 3.1754Z" fill="#FF3E00"/>
<path d="M10.3536 21.1242C9.98664 21.2187 9.61244 21.2665 9.23719 21.2667C8.52062 21.2666 7.81476 21.0928 7.18009 20.7601C6.54543 20.4274 6.00088 19.9458 5.59313 19.3566C5.09511 18.6597 4.82762 17.8244 4.82813 16.9678C4.82844 16.7263 4.84937 16.4855 4.89056 16.2492C4.92412 16.0713 4.96926 15.8969 5.02556 15.7275L5.13075 15.4073L5.41575 15.624C6.07718 16.1098 6.81632 16.4797 7.60163 16.7179L7.80863 16.7803L7.78913 16.9873V17.0948C7.78867 17.3538 7.86917 17.6064 8.01938 17.8174C8.14066 17.9971 8.30403 18.1443 8.49525 18.2464C8.69103 18.3497 8.90246 18.4031 9.11625 18.4033C9.22909 18.4038 9.34164 18.3894 9.45188 18.3604C9.57153 18.3291 9.68714 18.2785 9.79556 18.21L15.3756 14.6299C15.5429 14.5237 15.6806 14.3768 15.7758 14.203C15.871 14.0291 15.9207 13.834 15.9201 13.6358C15.9184 13.3768 15.8358 13.1247 15.6838 12.915C15.5606 12.7377 15.3964 12.5929 15.2051 12.4928C15.0092 12.3917 14.7982 12.34 14.5851 12.3409C14.4722 12.3405 14.3597 12.355 14.2494 12.384C14.1303 12.4146 14.0153 12.4652 13.9078 12.5342L11.7804 13.8936C11.4224 14.1192 11.0411 14.2866 10.6464 14.3916C9.76762 14.6203 8.83976 14.5737 7.98833 14.2579C7.13689 13.9422 6.40297 13.3725 5.88581 12.6261C5.38841 11.9289 5.12098 11.0938 5.12081 10.2373C5.12119 9.99641 5.14219 9.75603 5.18325 9.51866C5.2787 8.99086 5.48275 8.48865 5.78247 8.04385C6.08218 7.59905 6.47104 7.22136 6.92438 6.93472L12.5104 3.3741C12.8608 3.1509 13.2432 2.98229 13.6444 2.87403C14.0091 2.78056 14.3842 2.73332 14.7608 2.73341C15.4788 2.73181 16.1865 2.90443 16.8232 3.23646C17.4599 3.56848 18.0066 4.05001 18.4163 4.63972C18.9107 5.33857 19.1748 6.17427 19.1717 7.03035C19.1713 7.27254 19.1503 7.51404 19.1091 7.7511C19.0756 7.92889 19.0306 8.10324 18.9744 8.27253L18.8691 8.59278L18.5841 8.38391C17.9231 7.89741 17.1838 7.52746 16.3982 7.29003L16.1912 7.22572L16.2107 7.01853V6.91128C16.2106 6.65174 16.1302 6.39857 15.9804 6.1866C15.8574 6.00946 15.6934 5.86471 15.5023 5.76472C15.3069 5.66364 15.0963 5.61176 14.8836 5.61228C14.7717 5.61469 14.6605 5.63173 14.5517 5.6631C14.4319 5.6932 14.3162 5.74384 14.2084 5.81347L8.62219 9.3741C8.48973 9.4568 8.37261 9.57098 8.27794 9.70972C8.1896 9.83926 8.12776 9.99191 8.09738 10.1554C8.0836 10.2233 8.07506 10.2926 8.07188 10.3624C8.07175 10.6208 8.15224 10.8727 8.30213 11.0832C8.42501 11.2603 8.589 11.4051 8.78006 11.505C8.97555 11.6061 9.1862 11.658 9.399 11.6573C9.51185 11.6577 9.62439 11.6432 9.73463 11.6142C9.85449 11.5838 9.9702 11.5332 10.0783 11.464L12.2096 10.0967C12.5675 9.87076 12.9489 9.70328 13.3436 9.59872C13.7106 9.50426 14.0848 9.45649 14.46 9.45622C15.1767 9.45614 15.8827 9.62968 16.5177 9.962C17.1527 10.2943 17.6977 10.7755 18.1061 11.3644C18.4246 11.8107 18.6507 12.3163 18.771 12.8512C18.8914 13.3862 18.9035 13.9398 18.8068 14.4795C18.7119 15.0075 18.5081 15.51 18.2083 15.9548C17.9085 16.3997 17.5194 16.7773 17.0657 17.0635L11.4894 20.6241C11.131 20.8507 10.7489 21.0189 10.3536 21.1242Z" fill="white"/>
</g>
<defs>
<clipPath id="clip0_53_142">
<rect width="24" height="24" fill="white"/>
</clipPath>
</defs>
</svg>
