<svg width="24" height="24" viewBox="0 0 24 24" fill="none" xmlns="http://www.w3.org/2000/svg">
<g clip-path="url(#clip0_53_203)">
<path d="M12.9966 3.32001C13.1351 3.32001 13.2681 3.37947 13.3673 3.48571C13.4665 3.59195 13.5239 3.73656 13.5275 3.88869L13.5276 3.90353V10.5828C13.5277 10.735 13.4736 10.8812 13.3769 10.9902C13.2802 11.0992 13.1485 11.1624 13.0101 11.1663L12.9966 11.1665H8.03943C7.90088 11.1665 7.76781 11.107 7.66861 11.0008C7.5694 10.8945 7.51192 10.7498 7.50842 10.5977L7.50833 10.5828V3.90353C7.50836 3.75134 7.56248 3.60518 7.65917 3.4962C7.75585 3.38722 7.88746 3.32403 8.02593 3.32011L8.03943 3.32001H12.9966ZM12.9966 3.57958H8.03943C7.96303 3.5796 7.88962 3.61215 7.8346 3.67038C7.77959 3.72862 7.74726 3.80801 7.74439 3.89189L7.74411 3.90353V10.5828C7.74423 10.6668 7.77394 10.7475 7.82703 10.808C7.88011 10.8684 7.95243 10.904 8.02883 10.9071L8.03943 10.9073H12.9966C13.073 10.9071 13.1464 10.8745 13.2014 10.8162C13.2564 10.7579 13.2887 10.6784 13.2916 10.5945L13.2918 10.5828V3.90353C13.2916 3.81756 13.2605 3.73517 13.2051 3.67443C13.1497 3.61369 13.0747 3.57958 12.9965 3.57958H12.9966ZM8.74743 9.54538V9.93412H8.39324V9.54538H8.74743ZM12.7018 9.54538V9.93412H8.92471V9.54538H12.7016H12.7018ZM8.74743 7.85951V8.24825H8.39324V7.85951H8.74743ZM12.7018 7.85951V8.24825H8.92471V7.85951H12.7016H12.7018ZM8.74743 6.23843V6.62706H8.39324V6.23843H8.74743ZM12.7018 6.23843V6.62706H8.92471V6.23843H12.7016H12.7018ZM12.7018 4.74693V5.13608H8.39314V4.74682H12.7016L12.7018 4.74693ZM12.9966 12.5274V12.5315C13.1345 12.5315 13.267 12.5904 13.3661 12.6958C13.4651 12.8012 13.523 12.9448 13.5275 13.0962L13.5276 13.111V19.7903C13.5277 19.9425 13.4736 20.0887 13.3769 20.1977C13.2802 20.3067 13.1485 20.3698 13.0101 20.3737L12.9966 20.3739H8.03943C7.90135 20.3739 7.7687 20.3149 7.66959 20.2092C7.57049 20.1036 7.51271 19.9597 7.50852 19.8081L7.50833 19.7903V13.111C7.50836 12.9588 7.56248 12.8126 7.65917 12.7036C7.75585 12.5947 7.88746 12.5315 8.02593 12.5276L8.03943 12.5275H12.9966V12.5274ZM12.9966 12.787H8.03943C7.96303 12.787 7.88962 12.8196 7.8346 12.8778C7.77959 12.9361 7.74726 13.0155 7.74439 13.0993L7.74411 13.111V19.7903C7.74423 19.8743 7.77394 19.955 7.82703 20.0154C7.88011 20.0759 7.95243 20.1114 8.02883 20.1145L8.03943 20.1148H12.9966C13.0727 20.1146 13.1459 20.0822 13.2008 20.0243C13.2558 19.9664 13.2883 19.8875 13.2916 19.8039L13.2918 19.7924V13.113C13.2916 13.0291 13.2619 12.9485 13.2089 12.8881C13.1558 12.8278 13.0835 12.7923 13.0071 12.7893L12.9966 12.7891V12.787ZM8.74743 18.7543V19.1435H8.39324V18.7543H8.74743ZM12.7018 18.7574V19.1405H8.92471V18.7574H12.7016H12.7018ZM8.74743 17.0684V17.4576H8.39324V17.0684H8.74743ZM12.7018 17.0714V17.4546H8.92471V17.0714H12.7016H12.7018ZM8.74743 15.4477V15.8365H8.39324V15.4477H8.74743ZM12.7018 15.4508V15.8335H8.92471V15.4506H12.7016L12.7018 15.4508ZM12.7018 13.9562V14.3454H8.39314V13.9562H12.7016H12.7018ZM14.4261 7.24323V7.56708H16.1964V16.3771H14.4261V16.7015H16.4916V7.24323H16.1964H14.4261Z" fill="#8E8F8F"/>
<path d="M1.81238 1.52397C2.16141 0.89492 2.73647 0.528019 3.31734 0.315006L3.39656 0.286886L3.47569 0.26062C3.51525 0.24795 3.55472 0.235899 3.59409 0.224568L3.67256 0.202629C3.68569 0.199126 3.69872 0.195624 3.71166 0.192328L3.78947 0.172757L3.828 0.16359L3.90469 0.146388L3.98053 0.130732L4.05534 0.116311L4.12912 0.103332L4.20159 0.0914869L4.27275 0.0809804L4.34241 0.071607L4.41047 0.0632637L4.47684 0.0559504L4.57284 0.04668L4.66425 0.0394697L4.75069 0.0341135L4.84462 0.0296843L4.93059 0.0270062L4.98309 0.0260792L5.03147 0.0256671H5.07562L5.13347 0.0264912L5.16609 0.0272122L5.22563 0.0294783L5.25187 0.0309204V1.58773C3.99863 1.45671 3.43941 1.87264 3.19284 2.31586L3.17062 2.35748C3.13998 2.41745 3.1135 2.47987 3.09141 2.54423L3.07809 2.58501C3.07594 2.59171 3.07387 2.59841 3.07191 2.6052L3.06056 2.64538L3.05044 2.68483L3.04163 2.72356C3.04022 2.72994 3.03881 2.73633 3.03759 2.74261L3.03038 2.78021L3.02719 2.79875L3.02156 2.8348L3.01669 2.86982L3.01284 2.90371L3.00844 2.95212L3.00553 2.99734L3.00412 3.03277L3.00347 3.06563V3.0955L3.00394 3.12229L3.00487 3.14598L3.00647 3.17482L3.00947 3.20881V3.78079L3.00638 4.94855L3.00262 5.7901L2.99831 6.49794L2.99362 7.09609L2.98894 7.56713L2.9835 8.0257L2.97787 8.4166L2.97075 8.83078L2.96634 9.04658L2.96156 9.25053L2.95537 9.47765L2.95322 9.54872L2.95303 9.68016L2.95237 9.7606L2.95153 9.81499L2.94966 9.89719L2.94666 9.97671L2.94422 10.0251L2.94141 10.0737L2.93784 10.1226L2.93147 10.1959L2.92641 10.2449L2.9205 10.2941L2.91384 10.3432L2.91019 10.3677L2.90222 10.4167L2.89791 10.4413L2.88853 10.4902L2.87822 10.539L2.86687 10.5877C2.86284 10.6039 2.85872 10.6201 2.85431 10.6361L2.84062 10.6846L2.82581 10.7324L2.80969 10.7801C2.62819 11.2955 2.21719 11.7544 1.28672 11.9669C2.19197 12.1734 2.6055 12.6127 2.79441 13.1102L2.81166 13.1578C2.82834 13.2056 2.84306 13.2538 2.856 13.3023L2.86847 13.3509C2.87634 13.3834 2.88347 13.416 2.89003 13.4488L2.89922 13.4978L2.90344 13.5224L2.91131 13.5716L2.91834 13.6208L2.92444 13.67L2.92988 13.7193L2.93456 13.7684L2.9385 13.8174L2.94187 13.8664L2.94591 13.9394L2.94797 13.9878L2.9505 14.069L2.95162 14.1225L2.95247 14.1758L2.95303 14.2546L2.95322 14.3854L2.95959 14.6134L2.96522 14.8543L2.97047 15.1124L2.97516 15.3858L2.98031 15.7209L2.98725 16.2746L2.99194 16.7438L2.99437 17.0077L2.99934 17.6819L3.00478 18.6823L3.00853 19.765L3.00994 19.7641V20.7244L3.00853 20.738L3.00684 20.7584L3.00581 20.7767L3.00441 20.8108L3.00394 20.8377V20.8676L3.00459 20.9004L3.006 20.9358L3.00881 20.9806L3.01153 21.012L3.01697 21.0616L3.02166 21.0962L3.02719 21.1318L3.03375 21.1683L3.03731 21.1869L3.04538 21.2248L3.04988 21.2439L3.05963 21.2829L3.07069 21.3223C3.07256 21.329 3.07463 21.3357 3.07669 21.3423L3.08972 21.3825C3.09422 21.396 3.09909 21.4096 3.10406 21.4232L3.12 21.4639C3.31687 21.9489 3.83597 22.4727 5.17875 22.3526L5.25234 22.3454V23.9023L5.21475 23.9043L5.145 23.9065L5.08763 23.9075H5.01947L4.96837 23.907L4.91306 23.9058L4.85381 23.9039L4.77675 23.9005L4.72237 23.8975L4.66594 23.8938L4.60725 23.8894L4.54669 23.8842L4.48425 23.8781L4.42003 23.8712L4.35413 23.8632L4.28672 23.8543L4.21791 23.8443C4.20628 23.8425 4.19465 23.8407 4.18303 23.8388L4.11234 23.8271L4.07653 23.8209L4.00416 23.8073C3.99196 23.8049 3.97977 23.8025 3.96759 23.8001L3.89381 23.7844C3.8814 23.7817 3.86899 23.779 3.85659 23.7762L3.78159 23.7587L3.70613 23.7395C3.68081 23.7329 3.6555 23.7261 3.63009 23.7189L3.55359 23.6968C2.85141 23.4864 2.11359 23.0707 1.73419 22.2561C1.8165 21.2546 2.19131 20.4009 2.86453 19.8695C2.89622 19.845 2.92828 19.8211 2.96081 19.7982L2.99756 19.7725C2.952 19.8034 2.90719 19.8362 2.86322 19.8706C2.19131 20.4009 1.8165 21.2546 1.73419 22.252C1.56525 21.8773 1.47673 21.465 1.47544 21.0468L1.467 20.6176L1.45603 20.0972L1.44234 19.4882L1.42359 18.712L1.40653 18.0387L1.38291 17.1573L1.35628 16.2132L1.31166 14.7275L1.30088 14.3829C1.27453 13.603 0.989625 13.2231 0.693094 13.0397L0.658125 13.019C0.652339 13.0158 0.646526 13.0125 0.640688 13.0094L0.605719 12.9912C0.594204 12.9855 0.582608 12.98 0.570938 12.9747L0.536344 12.9599C0.524996 12.9552 0.513556 12.9507 0.502031 12.9465L0.468094 12.9344C0.456844 12.9307 0.445781 12.9272 0.434719 12.9238L0.408188 12.916L0.382125 12.9091L0.356438 12.903L0.331312 12.8975L0.294656 12.8905L0.270938 12.8867L0.247969 12.8834L0.214875 12.8794L0.185625 12.8792L0.125906 12.8784C0.0947205 12.8779 0.0635295 12.8779 0.0323437 12.8784L0 12.8794V11.0549C0.0777187 11.0579 0.147188 11.0564 0.214875 11.0524L0.247969 11.0483L0.270938 11.0451L0.294656 11.0412L0.331312 11.0341L0.356438 11.0287L0.382125 11.0225L0.408188 11.0156L0.434719 11.008L0.468094 10.9973L0.502031 10.9852L0.536344 10.9718C0.880969 10.8302 1.26984 10.4663 1.30088 9.54872L1.34119 8.22924L1.37241 7.1514L1.38928 6.53976L1.41516 5.55854L1.43203 4.87604L1.44431 4.35617L1.45978 3.66017L1.46878 3.22756L1.47544 2.88445C1.48575 2.34378 1.60706 1.90488 1.79953 1.54869L1.81247 1.5251L1.81238 1.52397ZM18.7477 1.56208V0.00537529L18.7857 0.0033152L18.8386 0.00156413L18.8729 0.0008431L18.9335 0.00012207H18.9797L19.0303 0.000740096L19.1083 0.00249117L19.208 0.00640533L19.2613 0.00918645L19.3168 0.0126886L19.4041 0.0191779L19.4647 0.0245341L19.5272 0.0307143L19.5914 0.0379246L19.6571 0.045959L19.7244 0.0550234L19.7931 0.0651178L19.863 0.0764482L19.9342 0.0888088L19.9701 0.095504L20.0427 0.109822L20.1162 0.125478L20.1905 0.142371L20.2655 0.160912L20.3408 0.180689C20.3787 0.190989 20.4168 0.20201 20.4548 0.213444L20.5312 0.237341C21.2446 0.467556 21.978 0.916345 22.3225 1.78519C22.4536 2.12482 22.5223 2.48959 22.5246 2.85849L22.533 3.28771L22.544 3.80809L22.5517 4.15624L22.5638 4.67744L22.5806 5.36376L22.5935 5.86683L22.6171 6.74835L22.6437 7.69248L22.6883 9.17822L22.6991 9.52277C22.7259 10.3157 23.0199 10.695 23.3217 10.8747L23.3566 10.8946L23.374 10.9038L23.4087 10.9214L23.4434 10.937C23.4491 10.9396 23.4549 10.942 23.4607 10.9443L23.4949 10.9579L23.5118 10.9641L23.5455 10.9755L23.5621 10.9808L23.6114 10.9947L23.6436 11.0026L23.6749 11.0093L23.7053 11.0151L23.7291 11.019L23.752 11.0223L23.7851 11.0263C23.8432 11.0297 23.9035 11.0314 23.9677 11.0298L24 11.0288V12.8538C23.9284 12.8511 23.8567 12.852 23.7851 12.8564L23.7633 12.8589L23.7406 12.862L23.7053 12.8675L23.6687 12.8745L23.6436 12.88L23.6179 12.8862L23.5918 12.8931L23.5653 12.9007L23.5487 12.9058L23.5149 12.9172L23.498 12.9233L23.4637 12.9368C23.4579 12.9392 23.4521 12.9416 23.4464 12.9441L23.4117 12.9598C23.0811 13.1163 22.7286 13.4882 22.6992 14.3599L22.6587 15.6787L22.6276 16.7567L22.6107 17.3684L22.5848 18.3497L22.568 19.0322L22.5557 19.5521L22.5402 20.2481L22.5312 20.6807L22.5246 21.0237C22.522 21.3445 22.4701 21.6626 22.3712 21.9644L22.3594 21.9998L22.3599 22.0031C22.0067 23.0058 21.1519 23.4773 20.3627 23.6967L20.2853 23.7175L20.2468 23.7273L20.1702 23.7458L20.1322 23.7544L20.0569 23.7706L20.0195 23.7782L19.9454 23.7925L19.9088 23.7991L19.8365 23.8114L19.7654 23.8224L19.6957 23.8323L19.6275 23.8411L19.5609 23.8489L19.4962 23.8557L19.4024 23.8642L19.3424 23.8688L19.2566 23.8744L19.176 23.8783L19.0776 23.8816L19.0215 23.8826L18.9699 23.883H18.9233L18.8815 23.8825L18.8452 23.8818L18.8008 23.8803L18.7624 23.8786L18.749 23.8778V22.3209C20.061 22.4581 20.6123 21.9959 20.8407 21.5304L20.8604 21.4887C20.8666 21.4749 20.8726 21.4609 20.8782 21.4471L20.8946 21.4056C20.8998 21.392 20.9047 21.3781 20.9094 21.3644L20.9228 21.3238L20.9348 21.2834L20.9404 21.2634L20.9505 21.2239L20.9593 21.1851L20.9671 21.1471L20.9738 21.11L20.9794 21.074L20.9842 21.039L20.9881 21.005L20.9925 20.9566L20.9946 20.9261L20.9968 20.8759L20.9975 20.8431V20.8133L20.997 20.7863L20.9961 20.7627L20.9951 20.7426L20.9929 20.7135L20.9915 20.6999V19.8461L20.9936 19.0512L20.9972 18.231L21.0014 17.5397L21.0069 16.834L21.0133 16.2006L21.0178 15.8324L21.022 15.5358L21.0277 15.1957L21.0316 14.9804L21.036 14.7757L21.0406 14.5825L21.0468 14.3594L21.047 14.2286L21.0476 14.1489L21.0484 14.0951L21.0496 14.0409L21.0522 13.959L21.0547 13.9039L21.0574 13.8549L21.0607 13.8058L21.0644 13.7564L21.0691 13.707L21.0743 13.6576L21.0802 13.6079L21.0836 13.5832L21.0908 13.5337L21.099 13.4842L21.1081 13.4348L21.1182 13.3853C21.1306 13.328 21.1451 13.2708 21.1621 13.2141L21.1774 13.1657C21.1986 13.1014 21.2231 13.038 21.2517 12.9756L21.2738 12.929C21.4882 12.4966 21.9044 12.1256 22.7133 11.9408C21.6931 11.7081 21.2975 11.1799 21.1439 10.6058L21.1315 10.5571C21.1237 10.5247 21.1165 10.492 21.11 10.4593L21.1008 10.4103L21.0966 10.3857L21.0887 10.3365L21.0817 10.2873L21.0756 10.238L21.0701 10.1889L21.0654 10.1398L21.0615 10.0907L21.0581 10.0418L21.0541 9.96877L21.052 9.92036L21.0495 9.8392L21.0484 9.78563L21.0475 9.73248L21.047 9.65358L21.0468 9.52277L21.0424 9.37063L21.0376 9.17719L21.0322 8.92823L21.0272 8.66309L21.0225 8.38395L21.0171 7.99387L21.0106 7.43291L21.0057 6.90872L21.0012 6.30151L20.9953 5.22172L20.9915 4.05159C21.0721 4.00277 21.1502 3.9491 21.2255 3.8909C21.6008 3.59549 21.8836 3.19727 22.0742 2.72881L22.0873 2.69605C21.8964 3.17873 21.6092 3.58879 21.2242 3.89152C21.1613 3.93993 21.0967 3.98526 21.0301 4.02738L20.9901 4.0521V3.18337L20.9915 3.16977L20.9932 3.14927L20.9942 3.13094L20.9956 3.09695L20.9961 3.07006V3.04019L20.9954 3.00723L20.994 2.9718L20.9923 2.94244L20.9886 2.89568L20.983 2.84603L20.9783 2.81152L20.9728 2.77588L20.9662 2.73932C20.9651 2.73313 20.9639 2.72695 20.9627 2.72077L20.9546 2.68297C20.9532 2.67654 20.9517 2.67012 20.9501 2.66371L20.9404 2.62477L20.9293 2.58532C20.9274 2.57873 20.9254 2.57204 20.9233 2.56534L20.9103 2.52517C20.9058 2.51178 20.9009 2.49818 20.8959 2.48459L20.88 2.44369C20.6831 1.95885 20.164 1.43507 18.8212 1.55507L18.7477 1.56229V1.56208Z" fill="#FE0902"/>
<path d="M2.92219 3.71763C2.93625 3.72896 2.95088 3.73957 2.9655 3.74997L3.00947 3.78088V3.20889L3.00807 3.1953L3.00647 3.1748L3.00535 3.15646L3.00394 3.12237L3.00347 3.09559V3.06561L3.00413 3.03276L3.00554 2.99732L3.00732 2.96745L3.00966 2.93624L3.01285 2.90369L3.01669 2.8698L3.02147 2.83478L3.0271 2.79873L3.03385 2.76154L3.0376 2.74259L3.04585 2.70427L3.05532 2.66513L3.06057 2.64525L3.07182 2.60518L3.0781 2.585L3.09141 2.54421C3.1126 2.48271 3.13866 2.41998 3.17063 2.35746L3.19285 2.31585C3.43941 1.87262 3.99863 1.45679 5.25197 1.58771V0.0309013L5.22572 0.0294592L5.18063 0.0277082L5.15044 0.0267811L5.07563 0.0257511H5.03157L4.9831 0.0260601L4.90285 0.0277082L4.82954 0.0302833L4.75069 0.0340944L4.66425 0.0395536L4.57285 0.0467639L4.50929 0.0526352L4.41047 0.0632446L4.34241 0.071485L4.27275 0.0809614L4.2016 0.0914678L4.12913 0.103313L4.05535 0.116292L3.98054 0.130712L3.90469 0.146369L3.828 0.163571C3.81512 0.166607 3.80224 0.169697 3.78938 0.172841L3.71166 0.192309C3.69872 0.195605 3.68569 0.199107 3.67257 0.202609L3.5941 0.224549C3.55472 0.23588 3.51535 0.247931 3.47569 0.260601L3.39657 0.286867L3.31735 0.314987C2.73647 0.528 2.16141 0.894901 1.81238 1.52395C1.92525 2.44244 2.29369 3.22548 2.92219 3.71763ZM5.25235 23.9024V22.3454C3.88163 22.4887 3.34116 21.9777 3.13191 21.4924L3.11475 21.4508C3.10668 21.4305 3.09906 21.4098 3.09188 21.389L3.07857 21.3482C3.07646 21.3414 3.0744 21.3347 3.07238 21.328L3.06104 21.2878L3.05091 21.2484L3.042 21.2096L3.03432 21.1716L3.02766 21.1345L3.02194 21.0985L3.01725 21.0634L3.01332 21.0295L3.00891 20.981L3.006 20.9358L3.0046 20.9004L3.00394 20.8675V20.8377L3.00441 20.8109L3.00535 20.7872L3.00629 20.7671L3.00854 20.738L3.00994 20.7235V19.7641C2.96054 19.7975 2.91207 19.8328 2.86463 19.8695C2.19132 20.4009 1.8165 21.2546 1.73419 22.2561C2.11369 23.0707 2.85132 23.4864 3.5536 23.6968L3.6301 23.7189C3.65541 23.7261 3.68082 23.7329 3.70613 23.7395L3.78169 23.7586L3.8566 23.7762L3.93075 23.7923C3.94313 23.795 3.95532 23.7975 3.9676 23.8L4.04044 23.8142L4.07654 23.8208L4.14779 23.8331L4.18304 23.8388L4.2525 23.8494L4.28672 23.8542L4.35422 23.8632L4.42004 23.8711L4.48425 23.878L4.54669 23.8842L4.60725 23.8894L4.66594 23.8938L4.72238 23.8975L4.803 23.9018L4.85382 23.9039L4.91316 23.9058L4.96847 23.907L5.01947 23.9075L5.08763 23.9074L5.145 23.9065L5.19094 23.9051L5.25235 23.9022V23.9024ZM22.3225 1.78506C21.956 0.86091 21.1496 0.412017 20.3953 0.195811L20.32 0.175004L20.2452 0.155639L20.2081 0.146472L20.1342 0.12927L20.0975 0.121236L20.0247 0.106094L19.9529 0.0921888L19.882 0.0795193L19.8123 0.0679828L19.7438 0.0576824L19.6765 0.048412L19.6108 0.0400687L19.5466 0.0327554L19.4841 0.0262661L19.3936 0.0182318L19.3074 0.0119485L19.2261 0.0071073L19.1498 0.00370815L19.1019 0.00216309L19.0443 0.000824034L18.9909 0H18.9424L18.8986 0.000309013L18.86 0.000927039L18.812 0.00226609L18.7767 0.00370815L18.7477 0.00525322V1.56216C20.1184 1.41878 20.6588 1.92979 20.8681 2.41514L20.8853 2.45676C20.8934 2.47736 20.901 2.49806 20.9081 2.51856L20.9214 2.55935C20.9236 2.56615 20.9257 2.57284 20.9276 2.57964L20.939 2.61971L20.9491 2.65916L20.958 2.69789L20.9657 2.736L20.9723 2.77308L20.9781 2.80913L20.9828 2.84415L20.9867 2.87815L20.9911 2.92656L20.994 2.97167L20.9954 3.00721L20.9961 3.03997V3.06984L20.9956 3.09672L20.9947 3.12041L20.9932 3.14925L20.9901 3.18345V4.05209C21.0707 4.00315 21.1488 3.94952 21.2242 3.8914C21.8334 3.41222 22.1982 2.66452 22.3225 1.78506ZM21.2844 20.0433C21.191 19.9703 21.0931 19.9043 20.9915 19.8459V20.6997L20.9929 20.7133L20.9945 20.7337L20.9956 20.7521L20.997 20.7862L20.9975 20.813V20.8429L20.9968 20.8758L20.9946 20.9259L20.9925 20.9564L20.9881 21.0048L20.9842 21.0388L20.9795 21.0739L20.9738 21.1099L20.9671 21.147L20.9593 21.1851L20.9505 21.2238L20.9404 21.2633L20.9348 21.2833L20.9228 21.3236L20.9094 21.3644C20.9048 21.378 20.8998 21.3918 20.8946 21.4056L20.8783 21.4469C20.8726 21.4608 20.8666 21.4747 20.8603 21.4885L20.8407 21.5303C20.6123 21.9958 20.061 22.458 18.749 22.3208V23.8776L18.77 23.8789L18.8303 23.8812L18.9045 23.8827L18.9495 23.883L19.0264 23.8825L19.0834 23.8813L19.1448 23.8794L19.2209 23.8761L19.3021 23.8715L19.3589 23.8674L19.4479 23.8602L19.5095 23.8542L19.5728 23.8475L19.6378 23.8397L19.7044 23.831L19.7723 23.8213L19.8415 23.8104L19.9118 23.7984C19.9238 23.7964 19.9356 23.7942 19.9475 23.7919L20.0195 23.7781L20.0923 23.763L20.1291 23.755L20.2031 23.7379L20.2403 23.7288L20.3153 23.7094C21.1175 23.4958 21.9996 23.0258 22.36 22.003C22.2173 21.1858 21.8581 20.4948 21.2844 20.0433Z" fill="#FFAB00"/>
</g>
<defs>
<clipPath id="clip0_53_203">
<rect width="24" height="24" fill="white"/>
</clipPath>
</defs>
</svg>
