<svg width="2003" height="1167" viewBox="0 0 2003 1167" fill="none" xmlns="http://www.w3.org/2000/svg">
<g filter="url(#filter0_f_86_81)">
<path opacity="0.2" d="M509.5 567C484.3 556.6 463 571.333 455.5 580C452.333 583.667 450.1 596 466.5 616C487 641 509.5 636.5 554.5 653.5C599.5 670.5 661 647 674.5 626.5C688 606 680.5 580 661 574C641.5 568 602.5 596.5 580.5 600C558.5 603.5 541 580 509.5 567Z" fill="#FF0725"/>
<path opacity="0.2" d="M988.639 604.072C952.952 589.326 922.787 610.216 912.166 622.504C907.681 627.702 904.518 645.189 927.744 673.546C956.775 708.992 988.639 702.612 1052.37 726.715C1116.09 750.819 1203.19 717.499 1222.31 688.434C1241.43 659.368 1230.81 622.504 1203.19 613.997C1175.57 605.49 1120.34 645.898 1089.19 650.861C1058.03 655.823 1033.25 622.504 988.639 604.072Z" fill="#FF0725"/>
<path opacity="0.2" d="M797.172 435.649C835.701 433.091 853.516 401.014 857.607 385.296C859.33 378.65 854.432 361.567 821.061 346.406C779.346 327.456 753.59 347.271 685.773 353.838C617.956 360.406 554.579 428.809 550.288 463.333C545.996 497.857 571.826 526.222 600.356 521.639C628.887 517.055 660.55 456.386 686.298 438.156C712.047 419.925 749.01 438.848 797.172 435.649Z" fill="#FF0725"/>
<path opacity="0.2" d="M811.47 620.006C862.998 644.1 908.79 615.384 925.245 598.013C932.194 590.664 938.021 565.143 905.746 521.854C865.402 467.743 818.083 474.994 725.919 435.247C633.754 395.499 503.35 438.687 473.265 480.178C443.179 521.668 456.336 576.63 496.404 591.002C536.472 605.374 620.461 549.615 666.643 544.403C712.825 539.192 747.06 589.888 811.47 620.006Z" fill="#FF0725"/>
<path opacity="0.2" d="M1584.31 584.597C1637.31 591.528 1670.16 552.789 1679.96 532.553C1684.09 523.995 1682.05 499.48 1640.84 469.885C1589.32 432.892 1549 452.839 1455.16 443.442C1361.31 434.046 1256.79 509.801 1241.64 555.515C1226.49 601.228 1253.9 646.714 1293.87 648.195C1333.85 649.676 1393.22 575.857 1433.1 558.06C1472.98 540.262 1518.06 575.934 1584.31 584.597Z" fill="#1D4CF4"/>
<path opacity="0.2" d="M607.307 789.597C660.308 796.528 693.156 757.789 702.956 737.553C707.089 728.995 705.053 704.48 663.839 674.885C612.321 637.892 572.002 657.839 478.156 648.442C384.309 639.046 279.792 714.801 264.643 760.515C249.493 806.228 276.902 851.714 316.875 853.195C356.847 854.676 416.219 780.857 456.1 763.06C495.98 745.262 541.055 780.934 607.307 789.597Z" fill="#1D4CF4"/>
<path opacity="0.2" d="M1194.31 584.597C1247.31 591.528 1280.16 552.789 1289.96 532.553C1294.09 523.995 1292.05 499.48 1250.84 469.885C1199.32 432.892 1159 452.839 1065.16 443.442C971.309 434.046 866.792 509.801 851.643 555.515C836.493 601.228 863.902 646.714 903.875 648.195C943.847 649.676 1003.22 575.857 1043.1 558.06C1082.98 540.262 1128.06 575.934 1194.31 584.597Z" fill="#1D4CF4"/>
<path opacity="0.2" d="M1401.15 606.748C1348.5 597.509 1313.99 634.776 1303.32 654.565C1298.81 662.934 1299.78 687.514 1339.66 718.881C1389.51 758.09 1430.67 739.923 1524.01 753.41C1617.36 766.897 1725.08 695.779 1742.22 650.77C1759.35 605.762 1733.95 559.123 1694.08 555.897C1654.21 552.672 1591.67 623.826 1551.05 639.865C1510.43 655.904 1466.96 618.297 1401.15 606.748Z" fill="#1D4CF4"/>
<path opacity="0.2" d="M1348.47 579.006C1400 603.1 1445.79 574.384 1462.25 557.013C1469.19 549.664 1475.02 524.143 1442.75 480.854C1402.4 426.743 1355.08 433.994 1262.92 394.247C1170.75 354.499 1040.35 397.687 1010.26 439.178C980.18 480.668 993.336 535.63 1033.4 550.002C1073.47 564.374 1157.46 508.615 1203.64 503.403C1249.83 498.192 1284.06 548.888 1348.47 579.006Z" fill="#D24A10"/>
</g>
<defs>
<filter id="filter0_f_86_81" x="-160" y="-160" width="2323" height="1487" filterUnits="userSpaceOnUse" color-interpolation-filters="sRGB">
<feFlood flood-opacity="0" result="BackgroundImageFix"/>
<feBlend mode="normal" in="SourceGraphic" in2="BackgroundImageFix" result="shape"/>
<feGaussianBlur stdDeviation="80" result="effect1_foregroundBlur_86_81"/>
</filter>
</defs>
</svg>
