<svg width="1725" height="1100" viewBox="0 0 1725 1100" fill="none" xmlns="http://www.w3.org/2000/svg">
<g filter="url(#filter0_f_70_17)">
<circle opacity="0.25" cx="519.402" cy="467.5" r="175.5" fill="#E0234E"/>
<path opacity="0.25" d="M851 333C794.2 321 749.334 372.667 734 400C701.5 579 903 582.5 972.5 591C1042 599.5 1214 584 1221 466.5C1228 349 1105 391.5 1068 423C1038.4 448.2 992 428.167 972.5 415C955.667 392.667 907.8 345 851 333Z" fill="#FCB121"/>
<path opacity="0.25" d="M849.196 399.362C897.228 404.269 935.145 382.913 948.099 371.622C975.51 297.732 805.131 296.448 746.362 292.996C687.593 289.544 542.165 296.076 536.292 344.568C530.419 393.06 634.405 375.424 665.678 362.397C690.696 351.974 729.937 360.204 746.43 365.622C760.672 374.824 801.164 394.456 849.196 399.362Z" fill="#FD6644"/>
<path opacity="0.25" d="M1422.2 748.362C1470.23 753.269 1508.14 731.913 1521.1 720.622C1548.51 646.732 1378.13 645.448 1319.36 641.996C1260.59 638.543 1115.17 645.076 1109.29 693.568C1103.42 742.06 1207.4 724.424 1238.68 711.396C1263.7 700.974 1302.94 709.204 1319.43 714.622C1333.67 723.824 1374.16 743.455 1422.2 748.362Z" fill="#FF0A36"/>
<path opacity="0.25" d="M406.905 676.734C358.878 671.782 320.941 693.102 307.976 704.381C280.495 778.245 450.873 779.689 509.639 783.197C568.404 786.704 713.838 780.308 719.757 731.822C725.676 683.336 621.674 700.874 590.389 713.872C565.36 724.271 526.127 716.004 509.639 710.571C495.405 701.355 454.932 681.686 406.905 676.734Z" fill="#4630D0"/>
<path opacity="0.25" d="M1015.54 751.902C1076.68 742.095 1116.59 703.094 1128.91 684.819C1138.43 584.203 926.905 638.964 852.948 654.124C778.991 669.284 600.964 725.478 609.725 787.502C618.487 849.527 741.494 793.283 775.933 766.798C803.484 745.61 854.826 742.828 877.053 744.086C897.743 750.777 954.406 761.709 1015.54 751.902Z" fill="#44FD8E"/>
<path opacity="0.25" d="M910.425 839.415C981.472 873.161 1056.9 819.257 1085.73 788.086C1185.08 562.512 920.7 494.271 831.816 461.125C742.932 427.98 511.422 394.088 465.096 546.687C418.769 699.286 594.246 682.132 652.941 652.314C699.898 628.459 754.705 669.505 776.239 693.011C791.365 727.751 839.379 805.668 910.425 839.415Z" fill="#E25555"/>
<circle opacity="0.25" cx="1201.5" cy="712.5" r="159.5" fill="#4182E8"/>
<circle opacity="0.25" cx="359.5" cy="606.5" r="159.5" fill="#4182E8"/>
<circle opacity="0.25" cx="1316.5" cy="380.5" r="159.5" fill="#4182E8"/>
</g>
<defs>
<filter id="filter0_f_70_17" x="-144" y="-200" width="2013" height="1500" filterUnits="userSpaceOnUse" color-interpolation-filters="sRGB">
<feFlood flood-opacity="0" result="BackgroundImageFix"/>
<feBlend mode="normal" in="SourceGraphic" in2="BackgroundImageFix" result="shape"/>
<feGaussianBlur stdDeviation="100" result="effect1_foregroundBlur_70_17"/>
</filter>
</defs>
</svg>
