<svg width="49" height="48" viewBox="0 0 49 48" fill="none" xmlns="http://www.w3.org/2000/svg">
<path d="M19.77 16.1525C20.974 16.1525 21.9415 15.185 21.9415 13.981C21.9415 12.777 20.974 11.8095 19.77 11.8095C18.566 11.8095 17.5985 12.777 17.5985 13.981C17.5985 15.185 18.566 16.1525 19.77 16.1525Z" fill="#353546"/>
<path fill-rule="evenodd" clip-rule="evenodd" d="M24.1345 20.8825C24.1345 18.5605 22.178 16.8835 19.77 16.8835C17.362 16.8835 15.4055 18.5605 15.4055 20.8825V21.979C15.4055 22.1725 15.4915 22.366 15.6205 22.495C15.7495 22.624 15.943 22.71 16.1365 22.71H23.4035C23.597 22.71 23.7905 22.624 23.9195 22.495C24.0485 22.366 24.1345 22.1725 24.1345 21.979V20.8825ZM15.3625 27.225C15.3625 26.7974 15.5324 26.3872 15.8348 26.0848C16.1372 25.7824 16.5473 25.6125 16.975 25.6125H32.025C32.4527 25.6125 32.8628 25.7824 33.1652 26.0848C33.4676 26.3872 33.6375 26.7974 33.6375 27.225C33.6375 27.6527 33.4676 28.0628 33.1652 28.3652C32.8628 28.6676 32.4527 28.8375 32.025 28.8375H16.975C16.5473 28.8375 16.1372 28.6676 15.8348 28.3652C15.5324 28.0628 15.3625 27.6527 15.3625 27.225ZM15.3625 33.675C15.3625 33.2474 15.5324 32.8372 15.8348 32.5348C16.1372 32.2324 16.5473 32.0625 16.975 32.0625H32.025C32.4527 32.0625 32.8628 32.2324 33.1652 32.5348C33.4676 32.8372 33.6375 33.2474 33.6375 33.675C33.6375 34.1027 33.4676 34.5128 33.1652 34.8152C32.8628 35.1176 32.4527 35.2875 32.025 35.2875H16.975C16.5473 35.2875 16.1372 35.1176 15.8348 34.8152C15.5324 34.5128 15.3625 34.1027 15.3625 33.675Z" fill="#353546"/>
<path fill-rule="evenodd" clip-rule="evenodd" d="M8.375 7.87501C8.375 5.50571 10.3057 3.57501 12.675 3.57501H27.0585C28.2668 3.57501 29.4063 4.08671 30.2083 4.93166L30.2212 4.94671L39.492 15.056C40.2638 15.8795 40.625 16.9566 40.625 17.98V40.125C40.625 42.4943 38.6943 44.425 36.325 44.425H12.675C10.3057 44.425 8.375 42.4943 8.375 40.125V7.87501ZM27.0564 7.87501H12.675V40.125H36.325V17.9628L27.0886 7.89006L27.0822 7.88791C27.0743 7.88222 27.0656 7.87787 27.0564 7.87501Z" fill="#353546"/>
<path fill-rule="evenodd" clip-rule="evenodd" d="M27.0585 3.57501C27.6287 3.57501 28.1756 3.80153 28.5788 4.20473C28.982 4.60794 29.2085 5.1548 29.2085 5.72501V15.83H38.475C38.7574 15.83 39.0369 15.8856 39.2978 15.9937C39.5586 16.1017 39.7956 16.2601 39.9953 16.4597C40.1949 16.6594 40.3533 16.8964 40.4614 17.1572C40.5694 17.4181 40.625 17.6977 40.625 17.98C40.625 18.2624 40.5694 18.5419 40.4614 18.8028C40.3533 19.0636 40.1949 19.3006 39.9953 19.5003C39.7956 19.6999 39.5586 19.8583 39.2978 19.9664C39.0369 20.0744 38.7574 20.13 38.475 20.13H27.0585C26.4883 20.13 25.9414 19.9035 25.5382 19.5003C25.135 19.0971 24.9085 18.5502 24.9085 17.98V5.72501C24.9085 5.1548 25.135 4.60794 25.5382 4.20473C25.9414 3.80153 26.4883 3.57501 27.0585 3.57501Z" fill="#353546"/>
</svg>
